<?xml version="1.0" encoding="UTF-8" standalone="no"?>
<svg
   xmlns:dc="http://purl.org/dc/elements/1.1/"
   xmlns:cc="http://creativecommons.org/ns#"
   xmlns:rdf="http://www.w3.org/1999/02/22-rdf-syntax-ns#"
   xmlns:svg="http://www.w3.org/2000/svg"
   xmlns="http://www.w3.org/2000/svg"
   xmlns:sodipodi="http://sodipodi.sourceforge.net/DTD/sodipodi-0.dtd"
   xmlns:inkscape="http://www.inkscape.org/namespaces/inkscape"
   fill="none"
   stroke-linecap="square"
   stroke-miterlimit="10"
   viewBox="0 0 348 348"
   version="1.1"
   id="svg4085"
   sodipodi:docname="Duck, Duck, Goose.svg"
   inkscape:version="0.92.4 (5da689c313, 2019-01-14)">
  <metadata
     id="metadata4091">
    <rdf:RDF>
      <cc:Work
         rdf:about="">
        <dc:format>image/svg+xml</dc:format>
        <dc:type
           rdf:resource="http://purl.org/dc/dcmitype/StillImage" />
        <dc:title></dc:title>
      </cc:Work>
    </rdf:RDF>
  </metadata>
  <defs
     id="defs4089" />
  <sodipodi:namedview
     pagecolor="#ffffff"
     bordercolor="#666666"
     borderopacity="1"
     objecttolerance="10"
     gridtolerance="10"
     guidetolerance="10"
     inkscape:pageopacity="0"
     inkscape:pageshadow="2"
     inkscape:window-width="1280"
     inkscape:window-height="961"
     id="namedview4087"
     showgrid="false"
     inkscape:zoom="1.9181287"
     inkscape:cx="171.93942"
     inkscape:cy="165.35955"
     inkscape:window-x="-8"
     inkscape:window-y="-8"
     inkscape:window-maximized="1"
     inkscape:current-layer="svg4085" />
  <path
     stroke="#000"
     stroke-linecap="butt"
     stroke-linejoin="round"
     stroke-width="2"
     d="M5.5 5.2h337v337.6H5.5z"
     id="path4037" />
  <path
     fill="#000"
     d="M134.3 15h74.3v57h-74.3z"
     id="path4039" />
  <path
     fill="#fff"
     d="M155 43.5c0-2.7.3-5 .8-6.6a8.7 8.7 0 0 1 2.5-3.8 6.4 6.4 0 0 1 4.2-1.3c1.2 0 2.3.2 3.2.7 1 .5 1.7 1.2 2.3 2.2.6.9 1 2 1.4 3.4.4 1.3.5 3.1.5 5.4a21 21 0 0 1-.8 6.5c-.5 1.6-1.4 3-2.5 3.8-1 1-2.5 1.4-4.1 1.4-2.2 0-4-.8-5.2-2.4-1.5-2-2.3-5-2.3-9.3zm2.9 0c0 3.7.4 6.2 1.3 7.5.9 1.2 2 1.9 3.3 1.9 1.3 0 2.3-.7 3.2-2 1-1.2 1.4-3.7 1.4-7.4 0-3.8-.5-6.3-1.4-7.5-.9-1.3-2-1.9-3.3-1.9-1.3 0-2.3.5-3 1.6-1 1.4-1.5 4-1.5 7.8zm14.9 0c0-2.7.3-5 .8-6.6a8.7 8.7 0 0 1 2.5-3.8 6.4 6.4 0 0 1 4.2-1.3c1.2 0 2.3.2 3.2.7 1 .5 1.7 1.2 2.3 2.2.6.9 1 2 1.4 3.4.4 1.3.5 3.1.5 5.4 0 2.7-.2 4.8-.8 6.5-.5 1.6-1.4 3-2.5 3.8-1 1-2.5 1.4-4.1 1.4-2.2 0-4-.8-5.2-2.4-1.5-2-2.3-5-2.3-9.3zm2.9 0c0 3.7.4 6.2 1.3 7.5.9 1.2 2 1.9 3.3 1.9 1.3 0 2.3-.7 3.2-2 .9-1.2 1.3-3.7 1.3-7.4 0-3.8-.4-6.3-1.3-7.5-.9-1.3-2-1.9-3.3-1.9-1.3 0-2.3.5-3 1.6-1 1.4-1.5 4-1.5 7.8z"
     id="path4041" />
  <path
     stroke="#000"
     stroke-linecap="butt"
     stroke-linejoin="round"
     stroke-width="2"
     d="M15.7 17h110v55h-110z"
     id="path4043" />
  <path
     d="M15.7 72l39.7-54"
     id="path4045" />
  <path
     stroke="#000"
     stroke-linecap="butt"
     stroke-linejoin="round"
     stroke-width="2"
     d="M15.7 72l39.7-54"
     id="path4047" />
  <path
     d="M38 72l39.7-54"
     id="path4049" />
  <path
     stroke="#000"
     stroke-linecap="butt"
     stroke-linejoin="round"
     stroke-width="2"
     d="M38 72l39.7-54"
     id="path4051" />
  <path
     d="M60.3 72L100 18"
     id="path4053" />
  <path
     stroke="#000"
     stroke-linecap="butt"
     stroke-linejoin="round"
     stroke-width="2"
     d="M60.3 72L100 18"
     id="path4055" />
  <path
     d="M82.6 72l39.7-54"
     id="path4057" />
  <path
     stroke="#000"
     stroke-linecap="butt"
     stroke-linejoin="round"
     stroke-width="2"
     d="M82.6 72l39.7-54m95-2h110v55h-110z"
     id="path4059" />
  <path
     d="M217.3 71L257 16.9"
     id="path4061" />
  <path
     stroke="#000"
     stroke-linecap="butt"
     stroke-linejoin="round"
     stroke-width="2"
     d="M217.3 71L257 16.9"
     id="path4063" />
  <path
     d="M239.6 71l39.7-54.1"
     id="path4065" />
  <path
     stroke="#000"
     stroke-linecap="butt"
     stroke-linejoin="round"
     stroke-width="2"
     d="M239.6 71l39.7-54.1"
     id="path4067" />
  <path
     d="M262 71l39.6-54.1"
     id="path4069" />
  <path
     stroke="#000"
     stroke-linecap="butt"
     stroke-linejoin="round"
     stroke-width="2"
     d="M262 71l39.6-54.1"
     id="path4071" />
  <path
     d="M284.2 71L324 16.9"
     id="path4073" />
  <path
     stroke="#000"
     stroke-linecap="butt"
     stroke-linejoin="round"
     stroke-width="2"
     d="M284.2 71L324 16.9"
     id="path4075" />
  <path
     stroke="#fff"
     stroke-width="3"
     d="M242.5 230.5h30m15 0h30"
     id="path4077" />
  <rect
     style="opacity:1;fill:#ffffff;fill-opacity:1;stroke:#000000;stroke-width:1.11761701;stroke-miterlimit:4;stroke-dasharray:none;stroke-opacity:1"
     id="rect3738"
     width="290.42343"
     height="166.84904"
     x="26.04073"
     y="92.532799" />
  <rect
     style="opacity:1;fill:#ffffff;fill-opacity:1;stroke:#000000;stroke-width:0.95143336;stroke-miterlimit:4;stroke-dasharray:none;stroke-opacity:1"
     id="rect3740"
     width="60.155098"
     height="39.158619"
     x="145.09317"
     y="277.40063"
     rx="6.7873659"
     ry="10.014836" />
  <rect
     style="opacity:1;fill:#ffffff;fill-opacity:1;stroke:#000000;stroke-width:0.95316684;stroke-miterlimit:4;stroke-dasharray:none;stroke-opacity:1"
     id="rect3740-0"
     width="60.155098"
     height="39.301441"
     x="273.34317"
     y="276.73648"
     rx="6.7873659"
     ry="10.051363" />
  <text
     xml:space="preserve"
     style="font-style:normal;font-variant:normal;font-weight:bold;font-stretch:normal;font-size:25.90663719px;line-height:1.25;font-family:Arial;-inkscape-font-specification:'Arial Bold';letter-spacing:0px;word-spacing:0px;fill:#000000;fill-opacity:1;stroke:none;stroke-width:1.94299793"
     x="233.0845"
     y="195.2903"
     id="text3769"
     transform="scale(0.62758277,1.5934153)"><tspan
       sodipodi:role="line"
       id="tspan3767"
       x="233.0845"
       y="195.2903"
       style="stroke-width:1.94299793">Neither</tspan></text>
  <text
     xml:space="preserve"
     style="font-style:normal;font-variant:normal;font-weight:bold;font-stretch:normal;font-size:27.08996391px;line-height:1.25;font-family:Arial;-inkscape-font-specification:'Arial Bold';letter-spacing:0px;word-spacing:0px;fill:#000000;fill-opacity:1;stroke:none;stroke-width:2.03174734"
     x="413.46655"
     y="205.91196"
     id="text3791"
     transform="scale(0.66395768,1.5061201)"><tspan
       sodipodi:role="line"
       id="tspan3789"
       x="413.46655"
       y="205.91196"
       style="stroke-width:2.03174734">Goose</tspan></text>
  <rect
     style="opacity:1;fill:#ffffff;fill-opacity:1;stroke:#000000;stroke-width:0.95316684;stroke-miterlimit:4;stroke-dasharray:none;stroke-opacity:1"
     id="rect3740-0-0"
     width="60.155098"
     height="39.301441"
     x="16.321833"
     y="277.25781"
     rx="6.7873659"
     ry="10.051363" />
  <text
     xml:space="preserve"
     style="font-style:normal;font-variant:normal;font-weight:bold;font-stretch:normal;font-size:28.75329018px;line-height:1.25;font-family:Arial;-inkscape-font-specification:'Arial Bold';letter-spacing:0px;word-spacing:0px;fill:#000000;fill-opacity:1;stroke:none;stroke-width:2.156497"
     x="23.731859"
     y="236.58813"
     id="text3765-7"
     transform="scale(0.76274503,1.3110541)"><tspan
       sodipodi:role="line"
       id="tspan3763-1"
       x="23.731859"
       y="236.58813"
       style="stroke-width:2.156497">Duck</tspan></text>
  <path
     style="opacity:1;fill:#000000;fill-opacity:1;stroke:#000000;stroke-width:0.60162807;stroke-miterlimit:4;stroke-dasharray:none;stroke-opacity:1"
     d="m 26.293521,93.386794 c 0,55.088416 0,110.176826 0,165.265236 3.614116,0.96013 7.976299,0.11426 11.869683,0.40017 92.451216,0 184.902436,0 277.353656,0 0.96012,-3.61411 0.11425,-7.9763 0.40017,-11.86968 0,-51.26524 0,-102.53048 0,-153.795726 -3.61412,-0.960126 -7.9763,-0.114257 -11.86969,-0.400171 -92.45121,0 -184.90243,0 -277.353648,0 l -0.368644,0.368644 z"
     id="path3875"
     inkscape:connector-curvature="0" />
</svg>
